<svg width="20" height="20" viewBox="0 0 20 20" fill="none" xmlns="http://www.w3.org/2000/svg">
<path d="M15.7 2.87059L13.8875 4.57647C16.05 5.81176 17.5 8.03529 17.5 10.5882C17.5 12.4604 16.7098 14.2558 15.3033 15.5796C13.8968 16.9034 11.9891 17.6471 10 17.6471C8.01088 17.6471 6.10322 16.9034 4.6967 15.5796C3.29018 14.2558 2.5 12.4604 2.5 10.5882C2.5 8.03529 3.95 5.81177 6.1 4.56471L4.3 2.87059C1.7 4.56471 0 7.38824 0 10.5882C0 13.0844 1.05357 15.4783 2.92893 17.2434C4.8043 19.0084 7.34784 20 10 20C12.6522 20 15.1957 19.0084 17.0711 17.2434C18.9464 15.4783 20 13.0844 20 10.5882C20 7.38824 18.3 4.56471 15.7 2.87059ZM11.25 0H8.75V11.7647H11.25" fill="white"/>
</svg>
