<svg width="25" height="17" viewBox="0 0 25 17" fill="none" xmlns="http://www.w3.org/2000/svg">
<path d="M19.4444 6.25V1.38889C19.4444 1.02053 19.2981 0.667264 19.0376 0.406796C18.7772 0.146329 18.4239 0 18.0556 0H1.38889C1.02053 0 0.667263 0.146329 0.406796 0.406796C0.146329 0.667264 0 1.02053 0 1.38889V15.2778C0 15.6461 0.146329 15.9994 0.406796 16.2599C0.667263 16.5203 1.02053 16.6667 1.38889 16.6667H18.0556C18.4239 16.6667 18.7772 16.5203 19.0376 16.2599C19.2981 15.9994 19.4444 15.6461 19.4444 15.2778V10.4167L25 15.9722V0.694444L19.4444 6.25Z" fill="white"/>
</svg>
